<svg width="30" height="26" viewBox="0 0 30 26" fill="none" xmlns="http://www.w3.org/2000/svg">
<path fill-rule="evenodd" clip-rule="evenodd" d="M0 24.25C0 23.9185 0.131696 23.6005 0.366117 23.3661C0.600537 23.1317 0.918479 23 1.25 23H28.75C29.0815 23 29.3995 23.1317 29.6339 23.3661C29.8683 23.6005 30 23.9185 30 24.25C30 24.5815 29.8683 24.8995 29.6339 25.1339C29.3995 25.3683 29.0815 25.5 28.75 25.5H1.25C0.918479 25.5 0.600537 25.3683 0.366117 25.1339C0.131696 24.8995 0 24.5815 0 24.25ZM0 16.75C0 16.4185 0.131696 16.1005 0.366117 15.8661C0.600537 15.6317 0.918479 15.5 1.25 15.5H28.75C29.0815 15.5 29.3995 15.6317 29.6339 15.8661C29.8683 16.1005 30 16.4185 30 16.75C30 17.0815 29.8683 17.3995 29.6339 17.6339C29.3995 17.8683 29.0815 18 28.75 18H1.25C0.918479 18 0.600537 17.8683 0.366117 17.6339C0.131696 17.3995 0 17.0815 0 16.75ZM0 9.25C0 8.91848 0.131696 8.60054 0.366117 8.36612C0.600537 8.1317 0.918479 8 1.25 8H28.75C29.0815 8 29.3995 8.1317 29.6339 8.36612C29.8683 8.60054 30 8.91848 30 9.25C30 9.58152 29.8683 9.89946 29.6339 10.1339C29.3995 10.3683 29.0815 10.5 28.75 10.5H1.25C0.918479 10.5 0.600537 10.3683 0.366117 10.1339C0.131696 9.89946 0 9.58152 0 9.25ZM0 1.75C0 1.41848 0.131696 1.10054 0.366117 0.866117C0.600537 0.631696 0.918479 0.5 1.25 0.5H28.75C29.0815 0.5 29.3995 0.631696 29.6339 0.866117C29.8683 1.10054 30 1.41848 30 1.75C30 2.08152 29.8683 2.39946 29.6339 2.63388C29.3995 2.8683 29.0815 3 28.75 3H1.25C0.918479 3 0.600537 2.8683 0.366117 2.63388C0.131696 2.39946 0 2.08152 0 1.75Z" fill="black"/>
</svg>
