<svg width="30" height="30" viewBox="0 0 30 30" fill="none" xmlns="http://www.w3.org/2000/svg">
<path d="M15.0956 3.74817H15.2625C16.8037 3.75379 24.6131 3.81004 26.7187 4.37629C27.3553 4.54911 27.9353 4.88596 28.4009 5.35318C28.8665 5.82041 29.2013 6.40164 29.3719 7.03879C29.5612 7.75129 29.6944 8.69442 29.7844 9.66754L29.8031 9.86254L29.8444 10.35L29.8594 10.545C29.9812 12.2588 29.9962 13.8638 29.9981 14.2144V14.355C29.9962 14.7188 29.9794 16.4325 29.8444 18.2175L29.8294 18.4144L29.8125 18.6094C29.7187 19.6819 29.58 20.7469 29.3719 21.5307C29.2013 22.1678 28.8665 22.7491 28.4009 23.2163C27.9353 23.6835 27.3553 24.0204 26.7187 24.1932C24.5437 24.7782 16.2769 24.8194 15.1312 24.8213H14.865C14.2856 24.8213 11.8894 24.81 9.37687 24.7238L9.05812 24.7125L8.895 24.705L8.57437 24.6919L8.25375 24.6788C6.1725 24.5869 4.19062 24.4388 3.2775 24.1913C2.64118 24.0186 2.06128 23.6821 1.59572 23.2152C1.13016 22.7483 0.795231 22.1675 0.624375 21.5307C0.41625 20.7488 0.2775 19.6819 0.18375 18.6094L0.16875 18.4125L0.15375 18.2175C0.0606814 16.9471 0.00940372 15.6739 0 14.4L0 14.1694C0.00375 13.7663 0.01875 12.3732 0.12 10.8357L0.133125 10.6425L0.13875 10.545L0.15375 10.35L0.195 9.86254L0.21375 9.66754C0.30375 8.69442 0.436875 7.74942 0.62625 7.03879C0.79682 6.40164 1.13162 5.82041 1.5972 5.35318C2.06278 4.88596 2.64283 4.54911 3.27937 4.37629C4.1925 4.13254 6.17437 3.98254 8.25562 3.88879L8.57437 3.87567L8.89687 3.86442L9.05812 3.85879L9.37875 3.84567C11.1632 3.7883 12.9484 3.75642 14.7337 3.75004L15.0956 3.74817ZM12 9.76692V18.8007L19.7944 14.2857L12 9.76692Z" fill="white"/>
</svg>
